<svg xmlns="http://www.w3.org/2000/svg" width="1600" height="1600" viewBox="0 0 1600 1600" role="img" aria-labelledby="title desc">
  <title id="title">Local Gemma 4 Content Radar</title>
  <desc id="desc">A stylized dashboard showing local Gemma 4 ranking content signals into a publishing decision report.</desc>
  <defs>
    <linearGradient id="bg" x1="0" y1="0" x2="1" y2="1">
      <stop offset="0" stop-color="#061923"/>
      <stop offset="0.48" stop-color="#0b2d33"/>
      <stop offset="1" stop-color="#113b30"/>
    </linearGradient>
    <linearGradient id="mint" x1="0" y1="0" x2="1" y2="1">
      <stop offset="0" stop-color="#9af7d4"/>
      <stop offset="1" stop-color="#45d6f1"/>
    </linearGradient>
    <filter id="shadow" x="-20%" y="-20%" width="140%" height="140%">
      <feDropShadow dx="0" dy="24" stdDeviation="26" flood-color="#000" flood-opacity="0.35"/>
    </filter>
  </defs>
  <rect width="1600" height="1600" fill="url(#bg)"/>
  <g opacity="0.18">
    <path d="M-110 1290 C220 980 450 1320 780 1030 C1050 790 1230 980 1710 680" fill="none" stroke="#7df5d4" stroke-width="170"/>
    <path d="M70 180 H1530 M70 340 H1530 M70 500 H1530 M70 660 H1530 M70 820 H1530 M70 980 H1530 M70 1140 H1530 M70 1300 H1530 M70 1460 H1530" stroke="#8fe8de" stroke-width="2"/>
    <path d="M180 80 V1520 M360 80 V1520 M540 80 V1520 M720 80 V1520 M900 80 V1520 M1080 80 V1520 M1260 80 V1520 M1440 80 V1520" stroke="#8fe8de" stroke-width="2"/>
  </g>
  <rect x="130" y="255" width="1340" height="1050" rx="54" fill="#071926" stroke="#2ee6ce" stroke-opacity="0.36" stroke-width="3" filter="url(#shadow)"/>
  <text x="210" y="382" fill="#8ff7e5" font-family="Avenir Next, Helvetica, Arial, sans-serif" font-size="38" font-weight="800" letter-spacing="8">GEMMA 4 CHALLENGE</text>
  <text x="210" y="485" fill="#f6fff9" font-family="Avenir Next, Helvetica, Arial, sans-serif" font-size="82" font-weight="900">Local Gemma 4 Radar</text>
  <text x="210" y="550" fill="#bfe2df" font-family="Avenir Next, Helvetica, Arial, sans-serif" font-size="31">Private long-context editorial decisions on localhost.</text>
  <g transform="translate(210 680)">
    <rect width="305" height="245" rx="30" fill="#0b2635" stroke="#26e6d1" stroke-opacity="0.45"/>
    <circle cx="48" cy="54" r="20" fill="#49dbe7" opacity="0.55"/>
    <text x="86" y="64" fill="#ffffff" font-family="Avenir Next, Helvetica, Arial, sans-serif" font-size="30" font-weight="900">Signals</text>
    <text x="48" y="122" fill="#bfe2df" font-family="Avenir Next, Helvetica, Arial, sans-serif" font-size="24">trends, notes, claims,</text>
    <text x="48" y="158" fill="#bfe2df" font-family="Avenir Next, Helvetica, Arial, sans-serif" font-size="24">drafts, source snippets</text>
  </g>
  <path d="M545 802 H660" stroke="url(#mint)" stroke-width="8" stroke-linecap="round"/>
  <path d="M654 780 L696 802 L654 824 Z" fill="#82f4dd"/>
  <g transform="translate(715 680)">
    <rect width="350" height="245" rx="30" fill="#11243a" stroke="#26e6d1" stroke-opacity="0.58"/>
    <circle cx="48" cy="54" r="20" fill="#9af7d4"/>
    <text x="86" y="64" fill="#ffffff" font-family="Avenir Next, Helvetica, Arial, sans-serif" font-size="30" font-weight="900">Gemma 4 E4B</text>
    <text x="48" y="122" fill="#bfe2df" font-family="Avenir Next, Helvetica, Arial, sans-serif" font-size="24">local reasoning over</text>
    <text x="48" y="158" fill="#bfe2df" font-family="Avenir Next, Helvetica, Arial, sans-serif" font-size="24">a 128K context window</text>
  </g>
  <path d="M1095 802 H1210" stroke="url(#mint)" stroke-width="8" stroke-linecap="round"/>
  <path d="M1204 780 L1246 802 L1204 824 Z" fill="#82f4dd"/>
  <g transform="translate(210 1010)">
    <rect width="1180" height="128" rx="48" fill="#071926" stroke="#2ee6ce" stroke-opacity="0.5"/>
    <text x="54" y="78" fill="#9af7d4" font-family="Avenir Next, Helvetica, Arial, sans-serif" font-size="32" font-weight="800">JSON + Markdown report</text>
    <text x="500" y="78" fill="#d7fff8" font-family="Avenir Next, Helvetica, Arial, sans-serif" font-size="32">rank, hook, risk notes, next actions</text>
  </g>
  <g transform="translate(1255 680)">
    <rect width="135" height="245" rx="30" fill="#9af7d4"/>
    <text x="30" y="128" fill="#071926" font-family="Avenir Next, Helvetica, Arial, sans-serif" font-size="30" font-weight="900">Local</text>
  </g>
</svg>
